<svg xmlns="http://www.w3.org/2000/svg" width="25" height="24">
    <path fill="#F5D76E" fill-rule="evenodd" d="M22.256 20.272a.95.95 0 0 1-.96.953H4.48a.95.95 0 0 1-.959-.953V10.148h2.218a6.782 6.782 0 0 0-.315 2.047c0 3.999 3.367 7.233 7.504 7.233 4.153 0 7.519-3.234 7.519-7.233 0-.703-.11-1.406-.315-2.047h2.124v10.124zm-4.468-8.327c0 2.578-2.17 4.671-4.86 4.671-2.674 0-4.845-2.093-4.845-4.671 0-2.578 2.171-4.671 4.845-4.671 2.69 0 4.86 2.093 4.86 4.671zm4.468-5.625c0 .594-.488 1.078-1.085 1.078h-2.738a1.084 1.084 0 0 1-1.085-1.078V3.742c0-.593.488-1.078 1.085-1.078h2.738c.597 0 1.085.485 1.085 1.078V6.32zm2.737-3.249c0-1.688-1.4-3.078-3.099-3.078H3.93C2.231-.007.831 1.383.831 3.071v17.841c0 1.688 1.4 3.078 3.099 3.078h17.964c1.699 0 3.099-1.39 3.099-3.078V3.071z"/>
</svg>
