<svg xmlns="http://www.w3.org/2000/svg" width="26" height="20">
    <path fill="#FFF" fill-rule="evenodd" d="M25.723 2.367c-.912.391-1.903.672-2.925.781a5.036 5.036 0 0 0 2.233-2.78c-.975.578-2.076 1-3.224 1.218a5.087 5.087 0 0 0-3.713-1.593c-2.816 0-5.081 2.265-5.081 5.046 0 .391.047.781.126 1.156A14.468 14.468 0 0 1 2.663.914a5.034 5.034 0 0 0 1.573 6.75 5.153 5.153 0 0 1-2.297-.641v.063c0 2.453 1.746 4.484 4.074 4.952a5.426 5.426 0 0 1-1.337.172c-.33 0-.645-.031-.96-.078.645 2 2.517 3.453 4.751 3.5a10.222 10.222 0 0 1-6.308 2.156c-.425 0-.818-.016-1.227-.063a14.426 14.426 0 0 0 7.803 2.265c9.343 0 14.456-7.686 14.456-14.357 0-.219 0-.438-.016-.657a10.865 10.865 0 0 0 2.548-2.609z"/>
</svg>
